<?xml version="1.0" encoding="utf-8"?>
<!-- Generator: Adobe Illustrator 18.1.0, SVG Export Plug-In . SVG Version: 6.00 Build 0)  -->
<svg version="1.1" id="Layer_1" xmlns="http://www.w3.org/2000/svg" xmlns:xlink="http://www.w3.org/1999/xlink" x="0px" y="0px"
	 viewBox="100 0 200 200" enable-background="new 100 0 200 200" xml:space="preserve">
<g>
	<circle fill="#ED2F3D" cx="200" cy="100" r="100"/>
	<path fill="#FFFFFF" d="M237.1,75.6L237.1,75.6v-30L218,63.5l-19.5-17.9l-18.7,17.9l-19.1-17.9v30v0.3v14.3v12.3v32.2v2.8v2.8
		c0,5.8,4.7,10.6,10.6,10.6h0.2c5.8,0,10.6-4.7,10.6-10.6v-2.8v-2.8v-12.6h33.6v12.6v2.8v2.8c0,5.8,4.7,10.6,10.6,10.6h0.2
		c5.8,0,10.6-4.7,10.6-10.6v-2.8v-2.8v-32.2V90.2L237.1,75.6L237.1,75.6z M182.1,102.5v-8.6c0-9.3,7.5-16.8,16.8-16.8
		s16.8,7.5,16.8,16.8v8.6C215.7,102.5,182.1,102.5,182.1,102.5z"/>
</g>
</svg>
